<svg xmlns="http://www.w3.org/2000/svg" width="72.002" height="90.001" viewBox="0 0 72.002 90.001"><defs><style>.a{fill:#031d40;}.b{fill:#fff;}</style></defs><g transform="translate(0 0.333)"><path class="a" d="M21278.918,21556.668l-.477-2.43h-2.8l-.525,2.43h-2.525l2.834-12h4l2.576,12Zm-2.852-4.551h1.953l-.881-4.885h-.033Zm-8.109,4.551v-8.867h-.033l-2.082,8.867h-1.85l-1.91-9.17h-.039v9.17h-2.336v-12h4.273l1.3,6.725h.031l1.543-6.725h4.148v12Zm-17.68,0v-12h7.6v2.326h-4.545v2.43h3.051v2.32h-3.051v2.494h4.545v2.43Zm-4.811,0-1.508-5.193h-1.018v5.193h-3.051v-12h4.543c2.289,0,4.047,1.045,4.047,3.4a2.973,2.973,0,0,1-2.012,2.766l2.012,5.832Zm-2.525-7.109h.6c1.152,0,1.893-.357,1.893-1.32,0-1.244-.963-1.346-1.98-1.346h-.508Zm-12.486,7.109v-12h7.59v2.326h-4.545v2.43h3.053v2.32h-3.053v2.494h4.545v2.43Zm-9.445,0v-12h7.59v2.326h-4.539v2.43h3.045v2.32h-3.045v2.494h4.539v2.43Zm-5.568,0v-4.924h-2.391v4.924H21210v-12h3.051v4.652h2.391v-4.652h3.047v12Z" transform="translate(-21210 -21467)"/><path class="b" d="M133.006,76.665a31,31,0,1,0,31,31A31,31,0,0,0,133.006,76.665Z" transform="translate(-97.004 -71.996)"/><path class="a" d="M168.606,143.265h-72v-72h72Zm-36-66.6a30.6,30.6,0,1,0,30.6,30.6A30.6,30.6,0,0,0,132.606,76.665Z" transform="translate(-96.605 -71.598)"/><path class="a" d="M194.348,169.015h-9.8V156.56h-12.41v12.455h-9.795v-32h9.795v11.8h12.41v-11.8h9.8Z" transform="translate(-142.348 -117.346)"/></g></svg>