<svg width="162" height="31" viewBox="0 0 162 31" fill="none" xmlns="http://www.w3.org/2000/svg">
<path d="M16.7261 26.2166H0V30.0747H16.7261V26.2166Z" fill="#EB0000"/>
<path d="M16.7261 19.7849H0V23.643H16.7261V19.7849Z" fill="#EB0000"/>
<path d="M16.7261 13.3533H0V17.2114H16.7261V13.3533Z" fill="#EB0000"/>
<path d="M6.04562 6.91675L2.1875 10.7794H19.2994V27.8913L23.1575 24.0286V6.91675H6.04562Z" fill="#EB0000"/>
<path d="M32.1494 0.653076H35.8759V1.56087H33.1525V2.94525H35.7352V3.85305H33.1525V5.37814H36.0211V6.28593H32.154V0.653076H32.1494Z" fill="#111111"/>
<path d="M37.4551 0.653076H38.4582V6.27685H37.4551V0.653076Z" fill="#111111"/>
<path d="M40.166 0.653076H43.7972V1.56087H41.1691V3.04057H43.6474V3.94836H41.1691V6.28593H40.1706V0.653076H40.166Z" fill="#111111"/>
<path d="M45.1982 0.653076H48.8294V1.56087H46.2014V3.04057H48.6796V3.94836H46.2014V6.28593H45.1982V0.653076Z" fill="#111111"/>
<path d="M51.6174 0.653076H52.4843L54.9081 6.27685H53.7643L53.2378 4.98779H50.8004L50.292 6.27685H49.1709L51.6174 0.653076ZM52.8883 4.13446L52.0214 1.84682L51.1408 4.13446H52.8883Z" fill="#111111"/>
<path d="M61.0076 5.86389C60.3222 6.23155 59.546 6.42218 58.6791 6.42218C56.9452 6.42218 55.7061 5.24659 55.7061 3.49001C55.7061 1.73343 56.9452 0.512451 58.6791 0.512451C59.5369 0.512451 60.3086 0.69401 60.8941 1.22053L60.1542 1.96492C59.7957 1.61542 59.2464 1.41571 58.6836 1.41571C57.5262 1.41571 56.7546 2.30534 56.7546 3.42647C56.7546 4.62475 57.5262 5.51439 58.6836 5.51439C59.192 5.51439 59.6549 5.41907 60.0045 5.21936V3.89398H58.8516V2.98619H61.003V5.86389H61.0076Z" fill="#111111"/>
<path d="M62.6699 0.653076H66.3964V1.56087H63.673V2.94525H66.2557V3.85305H63.673V5.37814H66.5417V6.28593H62.6745V0.653076H62.6699Z" fill="#111111"/>
<path d="M40.4284 17.4292C39.8383 16.6757 38.6582 16.3217 37.7595 16.3217C36.72 16.3217 35.2812 16.7937 35.2812 18.0465C35.2812 21.0921 42.9747 19.1313 42.9747 24.9865C42.9747 28.7176 39.979 30.4878 36.5294 30.4878C34.3825 30.4878 32.4943 29.8523 30.9102 28.3862L33.5291 25.5085C34.2826 26.498 35.5127 27.0881 36.7382 27.0881C37.9637 27.0881 39.2891 26.5207 39.2891 25.3406C39.2891 22.2722 31.4548 23.9244 31.4548 18.3551C31.4548 14.792 34.5459 12.9265 37.8275 12.9265C39.7157 12.9265 41.5313 13.4213 42.9475 14.674L40.4238 17.4337L40.4284 17.4292Z" fill="#111111"/>
<path d="M46.4238 13.344H51.9931L55.8422 24.2466H55.8876L59.7593 13.344H65.3059V30.0565H61.6248V17.2384H61.5794L57.1903 30.0565H54.3806L50.1549 17.2384H50.1095V30.0565H46.4284V13.344H46.4238Z" fill="#111111"/>
<path d="M83.5027 23.6111C83.5027 27.551 81.097 30.4786 76.4673 30.4786C71.8375 30.4786 69.4092 27.551 69.4092 23.6111V13.344H73.0903V23.4704C73.0903 25.522 74.5064 27.0834 76.4673 27.0834C78.4281 27.0834 79.817 25.5266 79.817 23.4704V13.344H83.4981V23.6111H83.5027Z" fill="#111111"/>
<path d="M87.752 13.344H91.4331V26.6568H98.2551V30.0565H87.752V13.344Z" fill="#111111"/>
<path d="M100.992 13.344H106.516C111.899 13.344 116.407 15.6316 116.407 21.7456C116.407 27.1515 111.995 30.0519 107.011 30.0519H100.992V13.344ZM104.673 26.6568H106.584C110.007 26.6568 112.58 25.3586 112.58 21.5595C112.58 18.2778 109.961 16.7437 106.843 16.7437H104.673V26.6568Z" fill="#111111"/>
<path d="M119.756 13.344H131.108V16.7437H123.437V19.8574H130.681V23.2571H123.437V26.6568H131.534V30.0565H119.756V13.344Z" fill="#111111"/>
<path d="M135.193 13.344H141.661C145.084 13.344 147.961 14.5241 147.961 18.4186C147.961 20.7561 146.709 22.5717 144.348 22.9984L148.597 30.0565H144.185L140.69 23.3751H138.874V30.0565H135.193V13.344ZM138.874 20.2614H141.044C142.388 20.2614 144.135 20.216 144.135 18.3959C144.135 16.721 142.624 16.4623 141.28 16.4623H138.874V20.2614Z" fill="#111111"/>
<path d="M159.453 17.4292C158.863 16.6757 157.683 16.3217 156.784 16.3217C155.744 16.3217 154.306 16.7937 154.306 18.0465C154.306 21.0921 161.999 19.1313 161.999 24.9865C161.999 28.7176 159.003 30.4878 155.554 30.4878C153.407 30.4878 151.519 29.8523 149.935 28.3862L152.554 25.5085C153.307 26.498 154.537 27.0881 155.763 27.0881C156.988 27.0881 158.314 26.5207 158.314 25.3406C158.314 22.2722 150.479 23.9244 150.479 18.3551C150.479 14.792 153.57 12.9265 156.852 12.9265C158.74 12.9265 160.556 13.4213 161.972 14.674L159.448 17.4337L159.453 17.4292Z" fill="#111111"/>
</svg>
