<?xml version="1.0" encoding="UTF-8"?><svg id="Layer_1" xmlns="http://www.w3.org/2000/svg" viewBox="0 0 1064.46 987.18"><defs><style>.cls-1{fill:#fff;}.cls-1,.cls-2{stroke-width:0px;}.cls-2{fill:#00cfe1;}</style></defs><path class="cls-1" d="m189.74,354.01l-43.84-12.52v-20.04l43.84-11.74L592.13,23.6l.02-23.6h-246.89L104.83,159.05c-14.02,9.28-27.35,19.61-39.41,31.32-87.22,84.78-87.24,198.15-.02,282.92,12.06,11.71,25.38,22.04,39.39,31.32l240.45,159.09h246.84l.09-23.55L189.74,354.01Z"/><path class="cls-2" d="m874.72,633.18l43.84,12.52v20.04l-43.84,11.75-402.38,286.1v23.6s246.87,0,246.87,0l240.42-159.06c14.02-9.28,27.35-19.61,39.4-31.32,87.23-84.78,87.24-198.15.02-282.92-12.05-11.71-25.38-22.04-39.39-31.32l-240.45-159.09h-246.84l-.09,23.55,402.45,286.14Z"/></svg>